<svg xmlns="http://www.w3.org/2000/svg" viewBox="0 0 216.42 108.2"><defs><style>.cls-1{fill:#85b76e;}.cls-2{fill:#3a771b;}</style></defs><title>Asset 1TheDatum</title><g id="Layer_2" data-name="Layer 2"><g id="Layer_1-2" data-name="Layer 1"><path class="cls-1" d="M108.42,46h8a0,0,0,0,1,0,0V98a8,8,0,0,1-8,8h-8a0,0,0,0,1,0,0V54A8,8,0,0,1,108.42,46Z"/><path class="cls-1" d="M128.42,28h8a0,0,0,0,1,0,0V95a8,8,0,0,1-8,8h-8a0,0,0,0,1,0,0V36a8,8,0,0,1,8-8Z"/><path class="cls-1" d="M216.42,0h0a0,0,0,0,1,0,0V14a16,16,0,0,1-16,16h0a0,0,0,0,1,0,0V16A16,16,0,0,1,216.42,0Z"/><path class="cls-1" d="M188.42,3h8a0,0,0,0,1,0,0V55a8,8,0,0,1-8,8h-8a0,0,0,0,1,0,0V11A8,8,0,0,1,188.42,3Z"/><path class="cls-1" d="M168.42,5h8a0,0,0,0,1,0,0V72a8,8,0,0,1-8,8h-8a0,0,0,0,1,0,0V13a8,8,0,0,1,8-8Z"/><path class="cls-1" d="M148.42,9h8a0,0,0,0,1,0,0V91a8,8,0,0,1-8,8h-8a0,0,0,0,1,0,0V17a8,8,0,0,1,8-8Z"/><path class="cls-2" d="M93.83,78A76.93,76.93,0,0,1,96,106,77.65,77.65,0,0,1,.44,22.41,77.66,77.66,0,0,1,93.83,78Z"/></g></g></svg>